<?xml version="1.0" standalone="no"?>
<!DOCTYPE svg PUBLIC "-//W3C//DTD SVG 20010904//EN"
 "http://www.w3.org/TR/2001/REC-SVG-20010904/DTD/svg10.dtd">
<svg version="1.0" xmlns="http://www.w3.org/2000/svg"
 width="307.000000pt" height="256.000000pt" viewBox="0 0 307.000000 256.000000"
 preserveAspectRatio="xMidYMid meet">
<metadata>
Created by potrace 1.16, written by Peter Selinger 2001-2019
</metadata>
<g transform="translate(0.000000,256.000000) scale(0.100000,-0.100000)"
fill="#000000" stroke="none">
<path d="M1217 2533 c-46 -157 -159 -542 -163 -555 -5 -17 41 -18 875 -18 693
0 881 3 888 13 11 18 243 561 243 569 0 5 -413 8 -919 8 -866 0 -919 -1 -924
-17z"/>
<path d="M1492 1543 c-174 -221 -389 -509 -385 -515 5 -10 425 -10 630 -1
l151 6 120 285 c67 157 119 289 116 294 -3 4 -133 8 -288 8 l-284 0 -60 -77z"/>
<path d="M823 658 c-21 -25 -414 -545 -427 -566 -6 -9 170 -12 864 -12 l872 0
11 32 c7 17 62 149 123 292 61 144 109 264 107 269 -2 4 -347 7 -767 7 l-763
0 -20 -22z"/>
</g>
</svg>
