<?xml version="1.0" standalone="yes"?>
<svg xmlns="http://www.w3.org/2000/svg" width="307" height="256">
<path style="fill:#ffffff; stroke:none;" d="M0 0L0 156L1 156L58.2801 74L105 8L83 89L161 66L76.3742 178L18 255L58.1998 157L71 124L20 147.895L1.02778 158.39L0 186L0 256L307 256L307 2L306 2L288.421 44L280.725 58.9722L267 60L233 60L105 60L123 0L0 0z"/>
<path style="fill:#678a9f; stroke:none;" d="M122 1L122 2C140.707 -2.45386 163.777 1 183 1L306 1L305 4L306 4L307 1C294.525 -2.68744 278.004 0 265 0L178 0C160.906 0 138.373 -3.83951 122 1z"/>
<path style="fill:#ffffff; stroke:none;" d="M306 0L307 1L306 0z"/>
<path style="fill:#22536e; stroke:none;" d="M106 60L282 59L306 1L172 1L137 1L123.51 2.02779L117.424 17L106 60z"/>
<path style="fill:#678a9f; stroke:none;" d="M121.333 3.66667L121.667 4.33333L121.333 3.66667M304.333 5.66667L304.667 6.33333L304.333 5.66667z"/>
<path style="fill:#fdd831; stroke:none;" d="M105.333 6.66667L105.667 7.33333L105.333 6.66667z"/>
<path style="fill:#678a9f; stroke:none;" d="M120.333 6.66667L120.667 7.33333L120.333 6.66667M303.333 7.66667L303.667 8.33333L303.333 7.66667z"/>
<path style="fill:#fdd831; stroke:none;" d="M104 8C78.5401 41.1228 55.3395 76.5749 31.659 111C21.7865 125.352 5.48542 141.456 0 158C17.3488 150.777 34.1643 141.606 51 133.248C55.9152 130.807 65.7125 124.157 71 126L72 126C71.1798 122.192 68.8414 123.429 66 125C71.1134 118.401 79.8083 113.229 86.2793 107.852C101.662 95.0685 114.877 79.6553 135 75L135 74L83 89L98.7091 32L104 8z"/>
<path style="fill:#678a9f; stroke:none;" d="M119.333 9.66667L119.667 10.3333L119.333 9.66667M302 10L303 11L302 10M118.333 12.6667L118.667 13.3333L118.333 12.6667M301.333 12.6667L301.667 13.3333L301.333 12.6667M300.333 14.6667L300.667 15.3333L300.333 14.6667M117 16L118 17L117 16M299 17L300 18L299 17M116.333 19.6667L116.667 20.3333L116.333 19.6667M298.333 19.6667L298.667 20.3333L298.333 19.6667M297.333 21.6667L297.667 22.3333L297.333 21.6667M115 23L116 24L115 23M296 24L297 25L296 24M114.333 26.6667L114.667 27.3333L114.333 26.6667M295.333 26.6667L295.667 27.3333L295.333 26.6667M294.333 28.6667L294.667 29.3333L294.333 28.6667M113 30L114 31L113 30M293 31L294 32L293 31M112.333 33.6667L112.667 34.3333L112.333 33.6667M292.333 33.6667L292.667 34.3333L292.333 33.6667M291.333 35.6667L291.667 36.3333L291.333 35.6667M111.333 36.6667L111.667 37.3333L111.333 36.6667M290.333 38.6667L290.667 39.3333L290.333 38.6667M110.333 40.6667L110.667 41.3333L110.333 40.6667M289.333 40.6667L289.667 41.3333L289.333 40.6667M288.333 42.6667L288.667 43.3333L288.333 42.6667M109 44L110 45L109 44M287.333 45.6667L287.667 46.3333L287.333 45.6667M108.333 47.6667L108.667 48.3333L108.333 47.6667M286.333 47.6667L286.667 48.3333L286.333 47.6667M285.333 49.6667L285.667 50.3333L285.333 49.6667M107 51L108 52L107 51M284.333 52.6667L284.667 53.3333L284.333 52.6667M106.333 54.6667L106.667 55.3333L106.333 54.6667M283.333 54.6667L283.667 55.3333L283.333 54.6667M282 56L282 59L283 59L282 56M105.333 58.6667L105.667 59.3333L105.333 58.6667M135 59L135 60L282 60C270.544 55.1929 250.468 59 238 59L135 59z"/>
<path style="fill:#fdd831; stroke:none;" d="M159.667 66.3333L160.333 66.6667L159.667 66.3333M156 67L157 68L156 67z"/>
<path style="fill:#fabd25; stroke:none;" d="M66 125L72 123L56.8495 160L29.9892 224L18 255L37.8735 230L71.8735 185L131.373 106L160 67C129.317 71.5313 108.804 87.764 86.2793 107.254C80.2696 112.454 69.6402 118.013 66 125z"/>
<path style="fill:#fdd831; stroke:none;" d="M152.667 68.3333L153.333 68.6667L152.667 68.3333M159 68L160 69L159 68M149.667 69.3333L150.333 69.6667L149.667 69.3333M146 70L147 71L146 70M142.667 71.3333L143.333 71.6667L142.667 71.3333M139.667 72.3333L140.333 72.6667L139.667 72.3333M156 72L157 73L156 72M136.667 73.3333L137.333 73.6667L136.667 73.3333M153 76L154 77L153 76M150 80L151 81L150 80M147 84L148 85L147 84M144 88L145 89L144 88M141 92L142 93L141 92z"/>
<path style="fill:#678a9f; stroke:none;" d="M152 98C163.807 91.505 182.751 95 196 95C201.162 95 207.739 93.7721 212 97C213.773 92.2962 200.957 94 198 94L166 94C160.414 94 155.657 93.1994 152 98z"/>
<path style="fill:#22536e; stroke:none;" d="M111 153L166 153L187.606 151.972L195.201 137L212 95L174 95L156.001 95.6034L141.873 111L111 153z"/>
<path style="fill:#fdd831; stroke:none;" d="M138 96L139 97L138 96M137 97L138 98L137 97z"/>
<path style="fill:#678a9f; stroke:none;" d="M211.333 98.6667L211.667 99.3333L211.333 98.6667M210.333 100.667L210.667 101.333L210.333 100.667z"/>
<path style="fill:#fdd831; stroke:none;" d="M134 101L135 102L134 101z"/>
<path style="fill:#678a9f; stroke:none;" d="M148 102L149 103L148 102M147 103L148 104L147 103M209 103L210 104L209 103z"/>
<path style="fill:#fdd831; stroke:none;" d="M131 105L132 106L131 105z"/>
<path style="fill:#678a9f; stroke:none;" d="M208.333 105.667L208.667 106.333L208.333 105.667M145 106L146 107L145 106M144 107L145 108L144 107M207.333 107.667L207.667 108.333L207.333 107.667z"/>
<path style="fill:#fdd831; stroke:none;" d="M128 109L129 110L128 109z"/>
<path style="fill:#678a9f; stroke:none;" d="M142 110L143 111L142 110M206 110L207 111L206 110M141 111L142 112L141 111M140 112L141 113L140 112M205.333 112.667L205.667 113.333L205.333 112.667z"/>
<path style="fill:#fdd831; stroke:none;" d="M125 113L126 114L125 113z"/>
<path style="fill:#678a9f; stroke:none;" d="M139 114L140 115L139 114M138 115L139 116L138 115M204 115L205 116L204 115M203.333 117.667L203.667 118.333L203.333 117.667M136 118L137 119L136 118M135 119L136 120L135 119M202.333 119.667L202.667 120.333L202.333 119.667M134 120L135 121L134 120z"/>
<path style="fill:#fdd831; stroke:none;" d="M119 121L120 122L119 121z"/>
<path style="fill:#678a9f; stroke:none;" d="M133 122L134 123L133 122M201 122L202 123L201 122M132 123L133 124L132 123M131 124L132 125L131 124M200.333 124.667L200.667 125.333L200.333 124.667z"/>
<path style="fill:#fabd25; stroke:none;" d="M64 125L65 126L64 125z"/>
<path style="fill:#fdd831; stroke:none;" d="M116 125L117 126L116 125z"/>
<path style="fill:#678a9f; stroke:none;" d="M130 126L131 127L130 126M199.333 126.667L199.667 127.333L199.333 126.667z"/>
<path style="fill:#fdd831; stroke:none;" d="M70.3333 127.667L70.6667 128.333L70.3333 127.667z"/>
<path style="fill:#678a9f; stroke:none;" d="M129 127L130 128L129 127M128 128L129 129L128 128z"/>
<path style="fill:#fdd831; stroke:none;" d="M69.3333 129.667L69.6667 130.333L69.3333 129.667M113 129L114 130L113 129z"/>
<path style="fill:#678a9f; stroke:none;" d="M198 129L199 130L198 129M126 131L127 132L126 131M197.333 131.667L197.667 132.333L197.333 131.667z"/>
<path style="fill:#fdd831; stroke:none;" d="M68 132L69 133L68 132z"/>
<path style="fill:#678a9f; stroke:none;" d="M125 132L126 133L125 132M196.333 133.667L196.667 134.333L196.333 133.667z"/>
<path style="fill:#fdd831; stroke:none;" d="M67 134L68 135L67 134z"/>
<path style="fill:#678a9f; stroke:none;" d="M123 135L124 136L123 135z"/>
<path style="fill:#fdd831; stroke:none;" d="M66.3333 136.667L66.6667 137.333L66.3333 136.667z"/>
<path style="fill:#678a9f; stroke:none;" d="M122 136L123 137L122 136M195 136L196 137L195 136M194.333 138.667L194.667 139.333L194.333 138.667z"/>
<path style="fill:#fdd831; stroke:none;" d="M65 139L66 140L65 139z"/>
<path style="fill:#678a9f; stroke:none;" d="M120 139L121 140L120 139M119 140L120 141L119 140z"/>
<path style="fill:#fdd831; stroke:none;" d="M64 141L65 142L64 141z"/>
<path style="fill:#678a9f; stroke:none;" d="M193 141L194 142L193 141M117 143L118 144L117 143M192 143L193 144L192 143z"/>
<path style="fill:#fdd831; stroke:none;" d="M63 144L64 145L63 144z"/>
<path style="fill:#678a9f; stroke:none;" d="M116 144L117 145L116 144M191.333 145.667L191.667 146.333L191.333 145.667z"/>
<path style="fill:#fdd831; stroke:none;" d="M62 146L63 147L62 146z"/>
<path style="fill:#678a9f; stroke:none;" d="M114 147L115 148L114 147z"/>
<path style="fill:#fdd831; stroke:none;" d="M61 148L62 149L61 148z"/>
<path style="fill:#678a9f; stroke:none;" d="M113 148L114 149L113 148M190 148L191 149L190 148M112 149L113 150L112 149M189 150L190 151L189 150z"/>
<path style="fill:#fdd831; stroke:none;" d="M60 151L61 152L60 151z"/>
<path style="fill:#678a9f; stroke:none;" d="M111 151L112 152L111 151M110 152C113.606 156.127 124.783 154 130 154L188 154L188 153C163.592 153 133.73 157.65 110 152M188 152L189 153L188 152z"/>
<path style="fill:#fdd831; stroke:none;" d="M59 153L60 154L59 153M58 156L59 157L58 156M57 158L58 159L57 158M55 163L56 164L55 163M54 165L55 166L54 165M85 166L86 167L85 166M82 170L83 171L82 170M51 172L52 173L51 172M49 177L50 178L49 177M47 182L48 183L47 182z"/>
<path style="fill:#678a9f; stroke:none;" d="M83 188L81 191L83 188z"/>
<path style="fill:#22536e; stroke:none;" d="M40 247L166 247L199 247L212.581 245.972L219.719 231L237 189C200.28 189 163.682 188 127 188C115.915 188 93.8678 183.752 84.0903 189.028C78.3209 192.141 73.9863 200.854 70.1265 206C60.287 219.119 47.3078 232.326 40 247z"/>
<path style="fill:#678a9f; stroke:none;" d="M165 188L165 189L216 189L237 191C238.79 186.252 224.117 188 221 188L165 188z"/>
<path style="fill:#fdd831; stroke:none;" d="M44 189L45 190L44 189z"/>
<path style="fill:#678a9f; stroke:none;" d="M236.333 191.667L236.667 192.333L236.333 191.667M80 192L81 193L80 192M79 193L80 194L79 193z"/>
<path style="fill:#fdd831; stroke:none;" d="M42 194L43 195L42 194z"/>
<path style="fill:#678a9f; stroke:none;" d="M235 194L236 195L235 194M77 196L78 197L77 196M234.333 196.667L234.667 197.333L234.333 196.667M76 197L77 198L76 197M233.333 198.667L233.667 199.333L233.333 198.667M74 200L75 201L74 200z"/>
<path style="fill:#fdd831; stroke:none;" d="M39 201L40 202L39 201z"/>
<path style="fill:#678a9f; stroke:none;" d="M73 201L74 202L73 201M232 201L233 202L232 201M231.333 203.667L231.667 204.333L231.333 203.667M71 204L72 205L71 204M70 205L71 206L70 205M230.333 205.667L230.667 206.333L230.333 205.667M68 208L69 209L68 208M229 208L230 209L229 208M67 209L68 210L67 209M66 210L67 211L66 210M228.333 210.667L228.667 211.333L228.333 210.667M65 212L66 213L65 212M227.333 212.667L227.667 213.333L227.333 212.667M64 213L65 214L64 213M63 214L64 215L63 214M226 215L227 216L226 215M62 216L63 217L62 216M61 217L62 218L61 217M225.333 217.667L225.667 218.333L225.333 217.667M60 218L61 219L60 218M224.333 219.667L224.667 220.333L224.333 219.667M59 220L60 221L59 220M58 221L59 222L58 221M57 222L58 223L57 222M223 222L224 223L223 222M56 224L57 225L56 224M222.333 224.667L222.667 225.333L222.333 224.667M55 225L56 226L55 225M54 226L55 227L54 226M221.333 226.667L221.667 227.333L221.333 226.667M53 228L54 229L53 228M52 229L53 230L52 229M220 229L221 230L220 229M51 230L52 231L51 230M219.333 231.667L219.667 232.333L219.333 231.667M49 233L50 234L49 233M218.333 233.667L218.667 234.333L218.333 233.667M48 234L49 235L48 234M217.333 236.667L217.667 237.333L217.333 236.667M46 237L47 238L46 237M45 238L46 239L45 238M216.333 238.667L216.667 239.333L216.333 238.667M43 241L44 242L43 241M215.333 241.667L215.667 242.333L215.333 241.667M42 242L43 243L42 242M214 244L215 245L214 244M40 245L41 246L40 245M39 246L51 248L83 248L213 248L213 247L97 247C78.6924 247 56.8208 250.243 39 246M213 246L214 247L213 246z"/>
<path style="fill:#fabd25; stroke:none;" d="M17 255L18 256L17 255z"/>
</svg>
